<?xml version="1.0" encoding="utf-8"?>
<!-- Generator: Adobe Illustrator 19.0.0, SVG Export Plug-In . SVG Version: 6.00 Build 0)  -->
<svg version="1.1" id="Layer_1" xmlns="http://www.w3.org/2000/svg" xmlns:xlink="http://www.w3.org/1999/xlink" x="0px" y="0px"
	 viewBox="0 0 552.7 216.3" style="enable-background:new 0 0 552.7 216.3;" xml:space="preserve">
<style type="text/css">
	.st0{fill:#7E5635;}
	.st1{fill:#375A37;}
	.st2{fill:#42210B;}
</style>
<rect id="XMLID_1_" x="94.1" y="136.7" class="st0" width="38" height="79.1"/>
<polygon id="XMLID_2_" class="st1" points="35.3,183.7 113,29.3 190.7,183.7 "/>
<rect id="XMLID_4_" x="259.4" y="137.2" class="st0" width="25.2" height="79.1"/>
<polygon id="XMLID_3_" class="st1" points="194.3,176.7 272,30.2 349.7,176.7 "/>
<rect id="XMLID_6_" x="356.2" y="136.7" class="st0" width="25.6" height="79.1"/>
<polygon id="XMLID_5_" class="st1" points="320.3,190.7 369.3,67.1 418.2,190.7 "/>
<rect id="XMLID_8_" x="475.7" y="136.7" class="st0" width="31.3" height="79.1"/>
<polygon id="XMLID_7_" class="st1" points="430,183.7 491.4,22.7 552.7,183.7 "/>
<rect id="XMLID_10_" x="175.1" y="136.7" class="st0" width="38" height="79.1"/>
<polygon id="XMLID_9_" class="st1" points="116.3,190.7 194,0 271.7,190.7 "/>
<rect id="XMLID_12_" x="31.2" y="136.7" class="st0" width="24.4" height="79.1"/>
<polygon id="XMLID_11_" class="st1" points="0,198.7 43.4,88.6 86.7,198.7 "/>
<g id="XMLID_22_">
	<g id="XMLID_20_">
		<ellipse id="XMLID_13_" class="st2" cx="410.2" cy="182.9" rx="31" ry="21.8"/>
		<ellipse id="XMLID_14_" class="st2" cx="427.5" cy="204.1" rx="8.5" ry="11.4"/>
		<ellipse id="XMLID_15_" class="st2" cx="401.2" cy="204.1" rx="9" ry="11.4"/>
		<ellipse id="XMLID_16_" class="st2" cx="441.5" cy="183.3" rx="5.4" ry="6.4"/>
		<ellipse id="XMLID_17_" class="st2" cx="383.9" cy="175.4" rx="13.6" ry="14.3"/>
		<ellipse id="XMLID_18_" class="st2" cx="388.1" cy="161.5" rx="9.1" ry="9.8"/>
		<ellipse id="XMLID_19_" class="st2" cx="377.1" cy="164.3" rx="6.8" ry="7.1"/>
	</g>
	<ellipse id="XMLID_21_" class="st2" cx="374.2" cy="180.6" rx="9.7" ry="9.2"/>
</g>
</svg>
