<?xml version="1.0" encoding="utf-8"?>
<!-- Generator: Adobe Illustrator 19.0.0, SVG Export Plug-In . SVG Version: 6.00 Build 0)  -->
<svg version="1.1" id="Layer_1" xmlns="http://www.w3.org/2000/svg" xmlns:xlink="http://www.w3.org/1999/xlink" x="0px" y="0px"
	 viewBox="0 0 515.9 532.3" style="enable-background:new 0 0 515.9 532.3;" xml:space="preserve">
<style type="text/css">
	.st0{fill:#FFFFFF;stroke:#000000;stroke-miterlimit:10;}
	.st1{fill:#1A1A1A;}
	.st2{fill:#ECC19C;}
</style>
<path id="XMLID_8_" class="st0" d="M382.8,179.8"/>
<path id="XMLID_2_" class="st1" d="M156.6,72c0,0,88.1,143.8,103.2,157.1c15.2,13.3,110.7,165.9,127.8,195.6
	c17.1,29.7,50.6,64.6,50.6,64.6v6l-57.4,37l-10.8-3.2c0,0-32.9-77.2-49.4-97.5c-16.5-20.3-101.3-155.1-143-237.3
	c-29-57-36-56-45.8-67.5c-11.7-13.7-11.9-28.8-16.8-28.7c-1.2,0-3,0.9-5.1,5.1c0,0-9.5-24.1-31.1-23.4S47.2,96.9,47.2,96.9v9.4
	l-23.3,10.8c0,0-1.3,3.2-7-3.2c-5.7-6.3-15.2-31-15.2-31s-3.8-10.5,0-11c3.8-0.4,17.7-8.7,22.2-7.4c4.4,1.3,10.8-0.1,10.8-0.1
	l24.7-11.9l2.5-16.5c0,0,32.9-24.5,65.8-34.2s100,19.6,103.8,22.8c3.8,3.2-1.3,14.6-1.3,14.6l-15.8-4.4l15.2,7.6l-1.3,9.5
	c0,0-36.7-12-56.3-7.6c-19.6,4.4-19,8.9-19,8.9l8.2,12.7L156.6,72z"/>
<path id="XMLID_4_" class="st2" d="M515.9,237.9l-66.2-110.3l-151.5,91c-14.1-15.9-32.8-22.6-45.9-15c-4.1,2.4-7.3,6-9.6,10.4
	c-14.3-1.4-28.2,1.2-40.5,8.2c-41,23.6-48,88.5-15.5,144.9c32.5,56.5,92,83.1,133.1,59.5c28.4-16.3,40.4-52.3,34.5-91.6L515.9,237.9
	z"/>
</svg>
