<?xml version="1.0" encoding="utf-8"?>
<!-- Generator: Adobe Illustrator 19.0.0, SVG Export Plug-In . SVG Version: 6.00 Build 0)  -->
<svg version="1.1" id="Layer_1" xmlns="http://www.w3.org/2000/svg" xmlns:xlink="http://www.w3.org/1999/xlink" x="0px" y="0px"
	 viewBox="254.2 149 432.5 232" style="enable-background:new 254.2 149 432.5 232;" xml:space="preserve">
<style type="text/css">
	.st0{fill:#669966;}
	.st1{fill:#7E5635;}
	.st2{fill:#375A37;}
	.st3{fill:#F7931E;}
	.st4{fill:none;stroke:#754C24;stroke-width:5;stroke-miterlimit:10;}
	.st5{fill:#F7931E;fill-opacity:0.9;}
	.st6{fill:#ED1C24;fill-opacity:0.9;}
	.st7{fill:#FFFF00;fill-opacity:0.9;}
</style>
<path id="XMLID_4_" class="st0" d="M686.7,381c-15.8-36-55.9-62.7-102.9-62.7c-4.1,0-8.2,0.2-12.2,0.6
	c-21.6-41.4-69.8-70.3-125.9-70.3c-70.5,0-128.7,45.7-137,104.6c-21.8,5.1-40.7,14.8-54.5,27.8L686.7,381L686.7,381z"/>
<rect id="XMLID_1_" x="414.5" y="220.1" class="st1" width="20.9" height="41.9"/>
<polygon id="XMLID_2_" class="st2" points="381.5,231 424.5,149 467.5,231 "/>
<rect id="XMLID_5_" x="609.7" y="290.1" class="st1" width="14.7" height="41.9"/>
<polygon id="XMLID_3_" class="st2" points="574.5,314 617.5,212.9 660.5,314 "/>
<polygon id="XMLID_6_" class="st3" points="358.1,349 388.2,297.7 418.3,349 "/>
<polygon id="XMLID_7_" points="383.2,349 391.8,323.3 400.3,349 "/>
<line id="XMLID_8_" class="st4" x1="429.7" y1="354.3" x2="459.1" y2="360.4"/>
<line id="XMLID_9_" class="st4" x1="455.2" y1="353.6" x2="434" y2="361.2"/>
<polygon id="XMLID_11_" class="st5" points="436.5,358 441,341.2 445.4,358 "/>
<polygon id="XMLID_10_" class="st6" points="436.5,358 442.2,342.7 448,358 "/>
<polygon id="XMLID_12_" class="st7" points="436.6,358 445.4,339.6 454.3,358 "/>
</svg>
