<?xml version="1.0" encoding="utf-8"?>
<!-- Generator: Adobe Illustrator 19.0.0, SVG Export Plug-In . SVG Version: 6.00 Build 0)  -->
<svg version="1.1" id="Layer_1" xmlns="http://www.w3.org/2000/svg" xmlns:xlink="http://www.w3.org/1999/xlink" x="0px" y="0px"
	 viewBox="-263 165 432.5 232" style="enable-background:new -263 165 432.5 232;" xml:space="preserve">
<style type="text/css">
	.st0{fill:#7B7C7F;}
	.st1{fill:#669966;}
	.st2{fill:#7E5635;}
	.st3{fill:#375A37;}
	.st4{fill:#824737;}
	.st5{fill:#A48460;}
	.st6{fill:#855914;}
	.st7{fill:#876944;}
	.st8{fill:#C9B599;}
</style>
<g>
	<path class="st0" d="M104.2,222.6c-0.2,0-0.4,0-0.6,0.1c-1.2-3.4-3.8-5.7-6.8-5.7c-4.1,0-7.5,4.4-7.5,9.8c0,1.5,0.3,2.9,0.7,4.1
		c-0.4,1.2-0.7,2.7-0.7,4.2c0,3.9,1.6,7.2,3.8,8.1c-0.2,0.9-0.3,1.9-0.3,2.9c0,0.7,0.1,1.4,0.2,2.1c-0.1,0-0.1,0-0.2,0
		c-0.1,0-0.1,0-0.2,0c-0.5-1.2-1.7-2.1-3.1-2.1c-1.9,0-3.4,1.5-3.4,3.2c0,1,0.5,1.9,1.2,2.5c-0.8,1.4-1.2,3.1-1.2,5
		c0,4.8,3,8.6,6.7,8.6c3.7,0,6.7-3.9,6.7-8.6c0,0,0-0.1,0-0.1c0.4,0.1,0.8,0.1,1.2,0.1c4.4,0,7.9-4.8,7.9-10.7c0-2.1-0.4-4-1.2-5.7
		c1.2-1.8,2-4.7,2-7.9C109.4,227.1,107.1,222.6,104.2,222.6z"/>
	<ellipse class="st0" cx="105.5" cy="211.2" rx="3.9" ry="4.2"/>
	<ellipse class="st0" cx="86.9" cy="210.5" rx="2.6" ry="3.6"/>
</g>
<ellipse class="st1" cx="-184.9" cy="408.1" rx="79.8" ry="47.2"/>
<ellipse transform="matrix(0.9805 -0.1965 0.1965 0.9805 -76.7915 -3.014)" class="st1" cx="-53.6" cy="385.4" rx="136.3" ry="78.2"/>
<ellipse class="st1" cx="76.2" cy="402.6" rx="89.5" ry="86.4"/>
<rect id="XMLID_5_" x="-201" y="364.1" class="st2" width="4.3" height="13.3"/>
<polygon id="XMLID_3_" class="st3" points="-211.4,368.7 -198.7,336.6 -186.1,368.7 "/>
<rect id="XMLID_6_" x="-98" y="313" class="st2" width="5.3" height="16.3"/>
<polygon id="XMLID_4_" class="st3" points="-110.7,322.3 -95.2,283 -79.7,322.3 "/>
<rect id="XMLID_8_" x="-8.3" y="295.5" class="st2" width="5.3" height="16.3"/>
<polygon id="XMLID_7_" class="st3" points="-21,304.8 -5.5,265.4 10,304.8 "/>
<rect id="XMLID_10_" x="-68.6" y="336.1" class="st2" width="5.3" height="16.3"/>
<polygon id="XMLID_9_" class="st3" points="-81.3,345.4 -65.8,306.1 -50.3,345.4 "/>
<rect id="XMLID_12_" x="-149.2" y="347.5" class="st2" width="5.3" height="16.3"/>
<polygon id="XMLID_11_" class="st3" points="-161.9,356.8 -146.4,317.5 -130.9,356.8 "/>
<rect id="XMLID_1_" x="-19.8" y="340.1" class="st2" width="5.6" height="11.3"/>
<polygon id="XMLID_2_" class="st3" points="-28.7,343 -17.1,320.9 -5.5,343 "/>
<rect id="XMLID_14_" x="-117.6" y="340.8" class="st2" width="5.6" height="14.5"/>
<polygon id="XMLID_13_" class="st3" points="-126.5,344.6 -114.9,316.1 -103.3,344.6 "/>
<rect id="XMLID_16_" x="-46.8" y="308.6" class="st2" width="5.6" height="9.3"/>
<polygon id="XMLID_15_" class="st3" points="-55.8,311 -44.1,292.8 -32.5,311 "/>
<path class="st4" d="M60.8,322.3h12.1c-1.3,2.7-2.9,7-2.2,12.1c1.6,11.9,13.8,15.7,15.5,24.1c1.1,5.6-2.3,14.2-23.2,27l-4.6-12.3
	c12.6-7.9,14.5-13,13.7-16.2c-1.1-4.5-7.5-4.3-12-11.6c-4.5-7.3-2.8-14.8-2.5-16C58.4,326.2,59.8,323.8,60.8,322.3z"/>
<rect x="52" y="285.1" class="st5" width="47.7" height="37.2"/>
<path class="st6" d="M164,346"/>
<rect x="86.4" y="260" class="st7" width="13.2" height="25.1"/>
<polygon class="st5" points="52,285.1 75.8,261.4 99.7,285.1 "/>
<rect x="61.5" y="304.8" class="st7" width="11.4" height="17.5"/>
<rect x="78.1" y="299.9" class="st8" width="14.9" height="13.6"/>
<rect id="XMLID_18_" x="136.2" y="343.4" class="st2" width="5.6" height="17.6"/>
<polygon id="XMLID_17_" class="st3" points="127.3,347.9 138.9,313.5 150.5,347.9 "/>
<rect id="XMLID_20_" x="102.8" y="327.2" class="st2" width="5.6" height="17.6"/>
<polygon id="XMLID_19_" class="st3" points="93.9,331.8 105.5,297.4 117.1,331.8 "/>
<rect id="XMLID_22_" x="35" y="362.8" class="st2" width="5.6" height="13.4"/>
<polygon id="XMLID_21_" class="st3" points="26.1,366.2 37.7,340.1 49.3,366.2 "/>
</svg>
