<?xml version="1.0" encoding="utf-8"?>
<!-- Generator: Adobe Illustrator 19.0.0, SVG Export Plug-In . SVG Version: 6.00 Build 0)  -->
<svg version="1.1" id="Layer_1" xmlns="http://www.w3.org/2000/svg" xmlns:xlink="http://www.w3.org/1999/xlink" x="0px" y="0px"
	 viewBox="0 0 187.7 240.2" style="enable-background:new 0 0 187.7 240.2;" xml:space="preserve">
<style type="text/css">
	.st0{fill:#ECC19C;stroke:#000000;stroke-miterlimit:10;}
	.st1{fill:#603813;stroke:#000000;stroke-miterlimit:10;}
	.st2{fill:#FFFFFF;stroke:#000000;stroke-width:3;stroke-miterlimit:10;}
	.st3{fill:none;stroke:#000000;stroke-width:7;stroke-miterlimit:10;}
	.st4{fill:#7895A4;stroke:#000000;stroke-miterlimit:10;}
	.st5{fill:none;stroke:#000000;stroke-width:3;stroke-miterlimit:10;}
</style>
<ellipse id="XMLID_9_" class="st0" cx="174.8" cy="136.6" rx="12.3" ry="17.4"/>
<ellipse id="XMLID_8_" class="st0" cx="12.8" cy="137.6" rx="12.3" ry="17.4"/>
<path id="XMLID_1_" class="st0" d="M148.2,212l-26.7,18.8c-16.8,11.8-37.5,11.9-54.3,0.1l-26.7-18.8c-16.8-11.8-27.2-33.6-27.2-57.3
	l0-37.6c0-23.6,10.3-45.5,27.1-57.3l26.7-18.8c16.8-11.8,37.5-11.9,54.3-0.1l26.7,18.8c16.8,11.8,27.2,33.6,27.2,57.3l0,37.6
	C175.3,178.3,165,200.1,148.2,212z"/>
<path id="XMLID_3_" class="st1" d="M175.5,60.2c4.1,13.1-0.2,59.2-0.2,59.2L141,53.8L94.3,65L47.7,53.8l-34.3,65.5
	c0,0,3.6-59.6,0-75S6.8,21,22.6,16.1S46,16.8,78.3,5s53.8,3.5,53.8,3.5l13.3,24.4c0,0,4.3-14.6,17.1-12.5s13,8.6,13,8.6
	S171.4,47.1,175.5,60.2z"/>
<circle id="XMLID_2_" class="st2" cx="57.1" cy="136.8" r="17.4"/>
<circle id="XMLID_4_" class="st2" cx="130.1" cy="136.8" r="17.4"/>
<line id="XMLID_5_" class="st3" x1="39.7" y1="102.7" x2="74.5" y2="103.9"/>
<line id="XMLID_6_" class="st3" x1="147.7" y1="103.7" x2="113.3" y2="104.9"/>
<line id="XMLID_7_" class="st3" x1="74" y1="201.7" x2="113" y2="201.7"/>
<ellipse id="XMLID_10_" class="st4" cx="56.4" cy="137.2" rx="6" ry="5.7"/>
<ellipse id="XMLID_11_" class="st4" cx="130.4" cy="136.2" rx="6" ry="5.7"/>
<path id="XMLID_12_" class="st5" d="M89.7,141.9c0,0-22.8,23.1-15.2,30.6c7.6,7.6,18.1,5.7,19.8,0"/>
</svg>
